<svg id="svg" viewBox="0 0 35 36" fill="none" xmlns="http://www.w3.org/2000/svg">
<rect width="34.501" height="36" rx="17.2505" />
<path d="M20.11 28H15.798C12.507 28 10.861 28 9.718 27.202C9.39388 26.9756 9.10335 26.7046 8.855 26.397C8 25.331 8 23.797 8 20.727V18.182C8 15.219 8 13.737 8.473 12.554C9.234 10.651 10.843 9.151 12.883 8.441C14.15 8 15.74 8 18.917 8C20.733 8 21.64 8 22.365 8.252C23.531 8.658 24.45 9.515 24.885 10.602C25.155 11.278 25.155 12.125 25.155 13.818V16" stroke="url(#paint0_linear_788_14172)" stroke-width="1.5" stroke-linecap="round" stroke-linejoin="round"/>
<path d="M8 18C8 16.16 9.506 14.667 11.364 14.667C12.036 14.667 12.828 14.783 13.481 14.61C13.7656 14.5357 14.0256 14.3875 14.2345 14.1805C14.4435 13.9735 14.5941 13.7149 14.671 13.431C14.845 12.784 14.728 11.999 14.728 11.333C14.728 9.493 16.234 8 18.09 8M18.092 24H20.615M15.666 19.85C15.54 19.05 15.385 19.049 14.056 19H13.046C12.489 19 12.037 19.448 12.037 20V23C12.037 23.552 12.489 24 13.047 24H14.863C15.253 24 15.666 23.687 15.666 23.3V22.2C15.666 22.09 15.553 21.896 15.442 21.896H14.318M18.092 19H19.353M19.353 19H20.615M19.353 19V23.875M26.501 19H23.978C23.421 19 22.969 19.448 22.969 20V21.5M22.969 21.5V24M22.969 21.5H25.492" stroke="url(#paint1_linear_788_14172)" stroke-width="1.5" stroke-linecap="round" stroke-linejoin="round"/>
<defs>
<linearGradient id="paint0_linear_788_14172" x1="16.5775" y1="8" x2="16.5775" y2="28" gradientUnits="userSpaceOnUse">
<stop stop-color="#000"/>
<stop offset="1" stop-color="#000"/>
</linearGradient>
<linearGradient id="paint1_linear_788_14172" x1="17.2505" y1="8" x2="17.2505" y2="24" gradientUnits="userSpaceOnUse">
<stop stop-color="#000"/>
<stop offset="1" stop-color="#000"/>
</linearGradient>
</defs>
</svg>